<svg xmlns="http://www.w3.org/2000/svg" width="24" height="24" viewBox="0 0 24 24" fill="none" stroke="white" stroke-width="1" stroke-linecap="round" stroke-linejoin="round">
  <!-- Connections -->
  <line x1="4" y1="8" x2="12" y2="5" />
  <line x1="4" y1="8" x2="12" y2="12" />
  <line x1="4" y1="8" x2="12" y2="19" />
  <line x1="4" y1="16" x2="12" y2="5" />
  <line x1="4" y1="16" x2="12" y2="12" />
  <line x1="4" y1="16" x2="12" y2="19" />
  
  <line x1="12" y1="5" x2="20" y2="8" />
  <line x1="12" y1="5" x2="20" y2="16" />
  <line x1="12" y1="12" x2="20" y2="8" />
  <line x1="12" y1="12" x2="20" y2="16" />
  <line x1="12" y1="19" x2="20" y2="8" />
  <line x1="12" y1="19" x2="20" y2="16" />

  <!-- Nodes -->
  <circle cx="4" cy="8" r="1.5" fill="white" stroke="white" stroke-width="1" />
  <circle cx="4" cy="16" r="1.5" fill="white" stroke="white" stroke-width="1" />
  
  <circle cx="12" cy="5" r="1.5" fill="white" stroke="white" stroke-width="1" />
  <circle cx="12" cy="12" r="1.5" fill="white" stroke="white" stroke-width="1" />
  <circle cx="12" cy="19" r="1.5" fill="white" stroke="white" stroke-width="1" />
  
  <circle cx="20" cy="8" r="1.5" fill="white" stroke="white" stroke-width="1" />
  <circle cx="20" cy="16" r="1.5" fill="white" stroke="white" stroke-width="1" />
</svg>
